<svg version="1.1" width="25" height="22" viewBox="-1 2 25 22" xmlns="http://www.w3.org/2000/svg" xmlns:xlink="http://www.w3.org/1999/xlink">
  <!-- Exported by Scratch - http://scratch.mit.edu/ -->
  <g id="ID0.7318091616034508" transform="matrix(1.0699152946472168, 0, 0, 1.0699152946472168, 0, 0.25)">
    <path id="ID0.4931818414479494" fill="#966C6F" d="M 18.900 11.800 C 21.438 11.800 23.738 12.831 25.404 14.496 C 27.069 16.162 28.100 18.462 28.100 21 C 28.100 23.538 27.069 25.838 25.404 27.504 C 23.738 29.169 21.438 30.200 18.900 30.200 C 16.362 30.200 14.062 29.169 12.396 27.504 C 10.731 25.838 9.700 23.538 9.700 21 C 9.700 18.462 10.731 16.162 12.396 14.496 C 14.062 12.831 16.362 11.800 18.900 11.800 Z " transform="matrix(1, 0, 0, 1, -6.75, -8.5)"/>
    <path id="ID0.4647863954305649" fill="none" d="M 7.100 14.800 L 30.400 14.800 L 30.400 32.500 L 7.100 32.500 L 7.100 14.800 Z " transform="matrix(1, 0, 0, 1, -6.75, -8.5)"/>
    <text id="ID0.7153528896160424" fill="#E6E6E6" font-family="Helvetica" font-size="17" transform="matrix(1, 0, 0, 1, 5.15, 0.4)">5</text>
  </g>
</svg>